<?xml version="1.0" encoding="utf-8"?>
<!-- Generator: Adobe Illustrator 23.0.0, SVG Export Plug-In . SVG Version: 6.00 Build 0)  -->
<svg version="1.1" id="图层_1" xmlns="http://www.w3.org/2000/svg" xmlns:xlink="http://www.w3.org/1999/xlink" x="0px" y="0px"
	 viewBox="0 0 153 153" style="enable-background:new 0 0 153 153;" xml:space="preserve">
<style type="text/css">
	.st0{fill:#F14D42;}
	.st1{fill:#DC1B21;}
	.st2{fill:#FFFFFF;}
</style>
<path class="st0" d="M14,0h125c7.7,0,14,6.3,14,14v125c0,7.7-6.3,14-14,14H14c-7.7,0-14-6.3-14-14V14C0,6.3,6.3,0,14,0z"/>
<path class="st1" d="M130.2,32l-4.5,3.8l1.4,5.7c0.1,0.4,0.1,0.8-0.1,1.2c-0.1,0.4-0.4,0.7-0.7,1c-0.3,0.3-0.8,0.4-1.2,0.4
	c-0.4,0-0.9-0.1-1.2-0.3l-5.1-3.1l-5.1,3.1c-0.4,0.2-0.8,0.3-1.2,0.3c-0.4,0-0.8-0.2-1.2-0.4c-0.3-0.2-0.6-0.6-0.8-1
	c-0.1-0.4-0.2-0.8-0.1-1.2l1.4-5.7l-4.5-3.8c-0.3-0.3-0.6-0.6-0.7-1.1c-0.1-0.4-0.1-0.8,0-1.3c0.1-0.4,0.4-0.8,0.7-1
	c0.3-0.3,0.7-0.4,1.2-0.5l5.9-0.5l2.3-5.4c0.2-0.4,0.4-0.7,0.8-1c0.4-0.2,0.8-0.4,1.2-0.4c0.4,0,0.8,0.1,1.2,0.4
	c0.4,0.2,0.6,0.6,0.8,1l2.3,5.4l5.9,0.5c0.4,0,0.8,0.2,1.2,0.5c0.3,0.3,0.6,0.6,0.7,1c0.1,0.4,0.1,0.8,0,1.3S130.6,31.7,130.2,32z
	 M106.6,36.4c-0.1-0.1-0.3-0.2-0.4-0.3c-0.2-0.1-0.3-0.1-0.5-0.1s-0.3,0-0.5,0.1c-0.2,0.1-0.3,0.2-0.4,0.3l-9.4,9.4
	C95.1,46,95,46.4,95,46.7c0,0.3,0.1,0.7,0.4,0.9s0.6,0.4,0.9,0.4s0.7-0.1,0.9-0.4l9.4-9.4c0.1-0.1,0.2-0.3,0.3-0.4
	c0.1-0.2,0.1-0.3,0.1-0.5s0-0.3-0.1-0.5C106.8,36.7,106.7,36.5,106.6,36.4z M106.5,46.2l-8.6,8.6c-0.2,0.2-0.4,0.6-0.4,0.9
	c0,0.3,0.1,0.7,0.4,0.9c0.2,0.2,0.6,0.4,0.9,0.4s0.7-0.1,0.9-0.4l8.6-8.6c0.2-0.2,0.4-0.6,0.4-0.9c0-0.3-0.1-0.7-0.4-0.9
	c-0.2-0.2-0.6-0.4-0.9-0.4C107.1,45.9,106.8,46,106.5,46.2z M118.2,46.1l-8.7,8.7c-0.2,0.2-0.4,0.6-0.4,0.9c0,0.3,0.1,0.7,0.4,0.9
	c0.2,0.2,0.6,0.4,0.9,0.4c0.3,0,0.7-0.1,0.9-0.4l8.7-8.7c0.2-0.2,0.4-0.6,0.4-0.9c0-0.3-0.1-0.7-0.4-0.9c-0.2-0.2-0.6-0.4-0.9-0.4
	C118.8,45.7,118.5,45.8,118.2,46.1z"/>
<path class="st2" d="M24,66h105c4.4,0,8,3.6,8,8v55c0,4.4-3.6,8-8,8H24c-4.4,0-8-3.6-8-8V74C16,69.6,19.6,66,24,66z"/>
<path class="st0" d="M45.8,116.2c-0.4,0.5-0.9,0.8-1.6,1.1c-0.7,0.3-1.5,0.4-2.5,0.4c-1,0-1.9-0.2-2.8-0.6c-0.9-0.4-1.6-1.3-2.2-2.7
	l-4-10.4c-0.4-1.1-0.8-2.1-1.1-3c-0.3-1-0.7-2.1-1-3.3l-0.2,0.1c0.1,1.9,0.2,3.7,0.2,5.7c0,1.9,0,3.8,0,5.7v8
	c-0.3,0.1-0.7,0.2-1.4,0.3c-0.6,0.1-1.2,0.2-1.8,0.2c-0.6,0-1.1-0.1-1.6-0.2s-0.8-0.3-1.1-0.6c-0.3-0.3-0.5-0.7-0.7-1.2
	c-0.2-0.5-0.2-1.3-0.2-2.1V87.6c0.4-0.7,0.9-1.2,1.7-1.5c0.8-0.3,1.6-0.5,2.5-0.5c1,0,1.9,0.2,2.8,0.6c0.9,0.4,1.6,1.3,2.2,2.7
	l4,10.4c0.4,1.1,0.8,2.1,1.1,3c0.3,0.9,0.7,2,1,3.2l0.2-0.1c-0.1-1.9-0.2-3.7-0.2-5.6s0-3.7,0-5.6V86c0.3-0.1,0.7-0.2,1.3-0.3
	c0.6-0.1,1.2-0.2,1.8-0.2c1.2,0,2.1,0.3,2.7,0.8c0.6,0.5,0.9,1.6,0.9,3.3V116.2z M51.8,90.8c0-1.5,0.3-2.6,1-3.5
	c0.7-0.9,1.6-1.3,2.7-1.3h13.2c0.2,0.4,0.3,0.9,0.5,1.5c0.2,0.6,0.2,1.3,0.2,2c0,1.3-0.2,2.2-0.7,2.8c-0.4,0.5-1,0.8-1.7,0.8h-8.5
	v4.8h9c0.2,0.4,0.3,0.9,0.5,1.5c0.2,0.6,0.2,1.2,0.2,1.9c0,1.3-0.2,2.2-0.6,2.8c-0.4,0.5-1,0.8-1.7,0.8h-7.4v5.4h10.3
	c0.2,0.4,0.3,0.9,0.5,1.5c0.2,0.6,0.2,1.3,0.2,2c0,1.3-0.2,2.3-0.7,2.8c-0.4,0.5-1,0.8-1.7,0.8H55.5c-1.1,0-2.1-0.4-2.7-1.3
	c-0.7-0.9-1-2-1-3.5V90.8z M85.8,93.7c0.3-0.2,0.7-0.4,1.4-0.6c0.6-0.2,1.3-0.4,1.9-0.4c1.1,0,2.1,0.2,2.8,0.7
	c0.7,0.4,1.2,1,1.4,1.9c0.3,1.4,0.6,2.7,0.8,4c0.3,1.2,0.5,2.4,0.8,3.5c0.2,1.1,0.5,2.2,0.7,3.3c0.2,1.1,0.5,2.3,0.7,3.5h0.2
	c0.2-2.1,0.5-4.1,0.6-6c0.2-1.9,0.4-3.8,0.5-5.6c0.2-1.9,0.3-3.7,0.5-5.5c0.2-1.8,0.3-3.7,0.5-5.5c1-0.7,2-1.1,3.2-1.1
	c1,0,1.8,0.3,2.6,0.8c0.7,0.5,1.1,1.5,1.1,2.8c0,0.8-0.1,1.8-0.2,3.2c-0.1,1.4-0.3,2.9-0.5,4.6c-0.2,1.7-0.4,3.5-0.7,5.4
	c-0.3,1.9-0.5,3.7-0.8,5.4c-0.3,1.7-0.6,3.3-0.9,4.7c-0.3,1.4-0.6,2.4-0.8,3.2c-0.4,0.5-1.1,0.9-2,1.2c-0.9,0.3-1.8,0.5-2.8,0.5
	c-1.3,0-2.3-0.2-3.2-0.6c-0.9-0.4-1.4-1.1-1.6-1.9c-0.3-1.4-0.7-3-1.1-4.9s-0.8-4-1.3-6.2c-0.4,2.2-0.8,4.4-1.2,6.5
	c-0.4,2.1-0.8,3.9-1.1,5.4c-0.4,0.5-1,0.9-1.8,1.2c-0.8,0.3-1.7,0.5-2.6,0.5c-1.2,0-2.3-0.2-3.3-0.6c-1-0.4-1.6-1.1-1.9-1.9
	c-0.2-0.6-0.5-1.5-0.8-2.7c-0.3-1.2-0.5-2.6-0.8-4.2c-0.3-1.6-0.6-3.3-0.9-5.1c-0.3-1.8-0.6-3.6-0.8-5.5c-0.2-1.8-0.5-3.6-0.7-5.3
	c-0.2-1.8-0.4-3.4-0.5-4.8c0.4-0.4,0.9-0.9,1.6-1.2c0.7-0.4,1.4-0.6,2.2-0.6c1,0,1.8,0.3,2.5,0.9c0.7,0.5,1.1,1.5,1.2,2.8
	c0.4,3.5,0.8,6.4,1,8.8c0.3,2.3,0.5,4.3,0.7,5.8c0.2,1.5,0.3,2.6,0.4,3.5s0.2,1.5,0.2,2H83c0.2-1.4,0.5-2.6,0.7-3.8
	c0.2-1.2,0.4-2.3,0.6-3.5c0.2-1.2,0.5-2.5,0.7-3.8C85.3,97,85.5,95.4,85.8,93.7z M117,104.9c-1.2-0.5-2.2-1-3.2-1.5
	c-1-0.5-1.8-1.2-2.5-2c-0.7-0.8-1.2-1.6-1.6-2.7c-0.4-1.1-0.6-2.4-0.6-3.9c0-2.9,0.9-5.3,2.6-7c1.8-1.8,4.2-2.6,7.4-2.6
	c1.1,0,2.2,0.1,3.2,0.3c1,0.2,1.8,0.5,2.5,1c0.7,0.4,1.3,1,1.7,1.6c0.4,0.7,0.6,1.4,0.6,2.3s-0.2,1.7-0.5,2.3
	c-0.3,0.6-0.7,1.2-1.2,1.6c-0.6-0.5-1.4-0.9-2.4-1.2c-1-0.4-2.1-0.6-3.2-0.6c-1.2,0-2.1,0.2-2.6,0.7c-0.6,0.4-0.8,0.9-0.8,1.6
	c0,0.5,0.2,0.9,0.5,1.3c0.3,0.3,0.9,0.6,1.6,0.9l2.1,0.9c2.5,1,4.4,2.4,5.8,4c1.4,1.6,2,3.7,2,6.5c0,2.9-0.9,5.3-2.7,7.1
	c-1.8,1.8-4.4,2.7-7.9,2.7c-1.2,0-2.4-0.1-3.4-0.4c-1-0.2-2-0.6-2.8-1.1c-0.8-0.5-1.4-1.1-1.8-1.9c-0.4-0.8-0.6-1.6-0.6-2.6
	c0-1,0.2-1.8,0.7-2.5c0.5-0.7,0.9-1.3,1.5-1.6c0.7,0.8,1.7,1.4,2.7,2c1.1,0.5,2.3,0.8,3.6,0.8c1.3,0,2.2-0.3,2.8-0.8
	c0.5-0.5,0.8-1.1,0.8-1.8c0-0.7-0.2-1.2-0.6-1.5c-0.4-0.4-1-0.7-1.8-1.1L117,104.9z"/>
<path class="st2" d="M36.6,54.6c-0.3,0.3-0.7,0.5-1.2,0.6c-0.5,0.2-1.1,0.2-1.9,0.2c-0.7,0-1.4-0.1-2.1-0.3
	c-0.7-0.2-1.2-0.8-1.6-1.6l-2.9-6.2c-0.3-0.6-0.6-1.2-0.8-1.8c-0.2-0.6-0.5-1.2-0.8-2l-0.2,0c0.1,1.1,0.1,2.2,0.1,3.4
	c0,1.1,0,2.3,0,3.4v4.8c-0.2,0.1-0.6,0.1-1,0.2c-0.4,0.1-0.9,0.1-1.3,0.1c-0.4,0-0.8,0-1.2-0.1c-0.3-0.1-0.6-0.2-0.8-0.4
	s-0.4-0.4-0.5-0.7c-0.1-0.3-0.2-0.7-0.2-1.3V37.5c0.3-0.4,0.7-0.7,1.3-0.9c0.6-0.2,1.2-0.3,1.8-0.3c0.7,0,1.4,0.1,2.1,0.4
	c0.7,0.2,1.2,0.8,1.6,1.6l3,6.2c0.3,0.6,0.6,1.2,0.8,1.8c0.2,0.6,0.5,1.2,0.8,1.9l0.1,0c-0.1-1.1-0.1-2.2-0.1-3.3c0-1.1,0-2.2,0-3.3
	v-5c0.2-0.1,0.5-0.1,1-0.2c0.5-0.1,0.9-0.1,1.3-0.1c0.9,0,1.5,0.2,2,0.5c0.5,0.3,0.7,1,0.7,2V54.6z"/>
<path class="st2" d="M40.1,45.9c0-1.6,0.2-3,0.7-4.2c0.5-1.2,1.2-2.3,2-3.1c0.9-0.8,1.8-1.5,3-1.9c1.2-0.4,2.4-0.6,3.7-0.6
	c1.3,0,2.6,0.2,3.7,0.6c1.2,0.4,2.2,1.1,3,1.9c0.9,0.8,1.5,1.8,2,3.1c0.5,1.2,0.7,2.6,0.7,4.2c0,1.6-0.2,3-0.7,4.3
	c-0.5,1.2-1.1,2.3-2,3.1c-0.8,0.8-1.8,1.4-3,1.9c-1.2,0.4-2.4,0.6-3.8,0.6c-1.4,0-2.6-0.2-3.8-0.6c-1.2-0.5-2.1-1.1-3-1.9
	c-0.8-0.8-1.5-1.9-2-3.1C40.4,48.9,40.1,47.5,40.1,45.9z"/>
<path class="st0" d="M45.5,45.9c0,1.9,0.4,3.3,1.1,4.2c0.7,0.9,1.7,1.4,2.9,1.4c1.3,0,2.2-0.5,3-1.4c0.7-0.9,1.1-2.3,1.1-4.2
	c0-1.8-0.4-3.2-1.1-4.2c-0.7-0.9-1.7-1.4-2.9-1.4c-1.2,0-2.2,0.5-3,1.4C45.9,42.6,45.5,44,45.5,45.9z"/>
<path class="st2" d="M70.9,41.1c0.2-0.1,0.6-0.2,1-0.3c0.5-0.1,1-0.2,1.4-0.2c0.8,0,1.5,0.1,2.1,0.4c0.6,0.2,0.9,0.6,1,1.1
	c0.2,0.8,0.4,1.6,0.6,2.4c0.2,0.7,0.4,1.4,0.6,2.1c0.2,0.7,0.3,1.3,0.5,2c0.2,0.7,0.3,1.3,0.5,2.1h0.1c0.2-1.3,0.3-2.4,0.5-3.6
	c0.1-1.1,0.3-2.3,0.4-3.4c0.1-1.1,0.2-2.2,0.4-3.3c0.1-1.1,0.2-2.2,0.4-3.3c0.7-0.4,1.5-0.6,2.4-0.6c0.7,0,1.4,0.2,1.9,0.5
	c0.5,0.3,0.8,0.9,0.8,1.7c0,0.5,0,1.1-0.1,1.9c-0.1,0.8-0.2,1.7-0.4,2.8c-0.1,1-0.3,2.1-0.5,3.2c-0.2,1.1-0.4,2.2-0.6,3.2
	c-0.2,1-0.4,2-0.7,2.8c-0.2,0.8-0.4,1.5-0.6,1.9c-0.3,0.3-0.8,0.5-1.5,0.7c-0.7,0.2-1.4,0.3-2.1,0.3c-0.9,0-1.7-0.1-2.4-0.4
	c-0.6-0.3-1-0.6-1.2-1.1c-0.3-0.8-0.5-1.8-0.8-2.9c-0.3-1.1-0.6-2.4-1-3.7c-0.3,1.3-0.6,2.6-0.9,3.9c-0.3,1.3-0.6,2.3-0.8,3.2
	c-0.3,0.3-0.7,0.5-1.3,0.7c-0.6,0.2-1.3,0.3-2,0.3c-0.9,0-1.7-0.1-2.4-0.4c-0.7-0.3-1.2-0.6-1.4-1.1c-0.2-0.4-0.4-0.9-0.6-1.6
	c-0.2-0.7-0.4-1.6-0.6-2.5c-0.2-0.9-0.4-2-0.7-3c-0.2-1.1-0.4-2.2-0.6-3.3c-0.2-1.1-0.3-2.1-0.5-3.2c-0.2-1-0.3-2-0.4-2.9
	c0.3-0.3,0.7-0.5,1.2-0.7c0.5-0.2,1-0.3,1.6-0.3c0.8,0,1.4,0.2,1.8,0.5c0.5,0.3,0.8,0.9,0.9,1.7c0.3,2.1,0.6,3.8,0.8,5.2
	c0.2,1.4,0.4,2.5,0.5,3.4c0.1,0.9,0.2,1.6,0.3,2.1c0.1,0.5,0.1,0.9,0.2,1.2h0.1c0.2-0.8,0.3-1.6,0.5-2.3c0.2-0.7,0.3-1.4,0.5-2.1
	c0.2-0.7,0.4-1.5,0.5-2.3C70.5,43.1,70.7,42.2,70.9,41.1z"/>
</svg>
